<svg width="30" height="30" viewBox="0 0 30 30" fill="none" xmlns="http://www.w3.org/2000/svg">
<path fill-rule="evenodd" clip-rule="evenodd" d="M30 15C30 6.71583 23.2841 0 15 0C6.71583 0 0 6.71583 0 15C0 23.2846 6.71583 30 15 30C23.2841 30 30 23.2846 30 15ZM12.2698 6.66667C12.1519 6.89811 12.1519 7.20109 12.1519 7.80705V11.2414C12.1519 11.3928 12.1519 11.4684 12.171 11.5384C12.1879 11.6004 12.2158 11.6589 12.2532 11.7111C12.2954 11.7701 12.3542 11.8178 12.4717 11.9132L13.3404 12.6189C13.482 12.734 13.5528 12.7915 13.5785 12.8607C13.6011 12.9215 13.6011 12.9883 13.5785 13.049C13.5528 13.1182 13.482 13.1757 13.3404 13.2908L12.4717 13.9965C12.3542 14.0919 12.2954 14.1396 12.2532 14.1986C12.2158 14.2508 12.1879 14.3093 12.171 14.3713C12.1519 14.4413 12.1519 14.517 12.1519 14.6683V22.1929C12.1519 22.7988 12.1519 23.1018 12.2698 23.3332C12.3735 23.5369 12.539 23.7023 12.7426 23.806C12.9741 23.924 13.2771 23.924 13.883 23.924H16.1169C16.7229 23.924 17.0258 23.924 17.2573 23.806C17.4609 23.7023 17.6264 23.5369 17.7302 23.3332C17.8481 23.1018 17.8481 22.7988 17.8481 22.1929V18.7585C17.8481 18.6071 17.8481 18.5314 17.8289 18.4616C17.812 18.3995 17.7842 18.3409 17.7467 18.2887C17.7044 18.2298 17.6457 18.1821 17.5282 18.0867L16.6595 17.3809C16.5179 17.266 16.4471 17.2084 16.4214 17.1392C16.3989 17.0784 16.3989 17.0116 16.4214 16.9509C16.4471 16.8817 16.5179 16.8242 16.6595 16.7091L17.5282 16.0034C17.6457 15.908 17.7044 15.8603 17.7467 15.8013C17.7842 15.7491 17.812 15.6906 17.8289 15.6286C17.8481 15.5586 17.8481 15.483 17.8481 15.3316V7.80705C17.8481 7.20109 17.8481 6.89811 17.7302 6.66667C17.6264 6.46309 17.4609 6.29756 17.2573 6.19383C17.0258 6.0759 16.7229 6.0759 16.1169 6.0759H13.883C13.2771 6.0759 12.9741 6.0759 12.7426 6.19383C12.539 6.29756 12.3735 6.46309 12.2698 6.66667Z" fill="#1A285F" style="fill:#1A285F;fill:color(display-p3 0.1020 0.1569 0.3725);fill-opacity:1;"/>
</svg>
