<svg width="33" height="33" viewBox="0 0 33 33" fill="none" xmlns="http://www.w3.org/2000/svg">
<path fill-rule="evenodd" clip-rule="evenodd" d="M11.55 1.61023C11.55 0.721361 10.8106 3.86855e-06 9.89953 3.86855e-06C8.98846 3.86855e-06 8.25063 0.721361 8.25063 1.61023V2.42365C7.43237 2.43723 6.70539 2.4659 6.06502 2.53079C4.87708 2.65152 3.80207 2.9126 2.84459 3.55851C2.19186 3.99916 1.62573 4.5515 1.17403 5.18987C0.51045 6.12251 0.242847 7.17283 0.119103 8.33031C0.0108262 9.34744 0.00154828 10.5895 0 12.0729V12.3204V12.4894V21.8444C0 24.025 -2.36022e-08 25.8224 0.196442 27.2441C0.402165 28.7382 0.850719 30.0571 1.93349 31.1136C3.01625 32.1702 4.36813 32.6076 5.89962 32.8083C7.35671 33 9.19892 33 11.4342 33H21.5658C23.8009 33 25.6432 33 27.1004 32.8083C28.6317 32.6076 29.9836 32.17 31.0665 31.1136C32.1494 30.0572 32.5978 28.7383 32.8036 27.2441C33 25.8226 33 24.0252 33 21.8444V12.4894V12.343V12.0729C32.9985 10.5895 32.9892 9.34744 32.8809 8.33031C32.7572 7.17282 32.4896 6.12251 31.826 5.18986C31.3743 4.55153 30.8082 3.99919 30.1554 3.55851C29.1979 2.9126 28.1229 2.65152 26.935 2.53079C26.2946 2.4659 25.5676 2.43722 24.7494 2.42365V1.61023C24.7494 0.721356 24.0115 0 23.1005 0C22.1894 0 21.45 0.721356 21.45 1.61023V2.41457H11.5505L11.55 1.61023ZM29.6985 12.0728C29.697 10.5653 29.6877 9.49829 29.598 8.66528C29.5021 7.77039 29.3304 7.32823 29.1123 7.02187C28.8864 6.70345 28.6034 6.42727 28.277 6.20544C27.963 5.99416 27.5098 5.82665 26.5925 5.73307C26.079 5.68025 25.4804 5.65611 24.7488 5.64404V6.43934C24.7488 7.32821 24.0109 8.04805 23.0999 8.04805C22.1888 8.04805 21.4494 7.32821 21.4494 6.43934V5.63349H11.5499V6.43934C11.5499 7.32821 10.8106 8.04805 9.89948 8.04805C8.98841 8.04805 8.25058 7.32821 8.25058 6.43934V5.64404C7.51893 5.65611 6.92033 5.68025 6.40682 5.73307C5.48957 5.82664 5.03638 5.99415 4.72236 6.20544C4.39599 6.42728 4.11291 6.70346 3.88708 7.02187C3.66899 7.32822 3.49729 7.77039 3.40138 8.66528C3.31166 9.49829 3.30238 10.5653 3.30083 12.0728H29.6985ZM3.30092 15.2917V21.7311C3.30092 24.0536 3.30401 25.6323 3.46643 26.8152C3.6242 27.9516 3.89955 28.4783 4.26765 28.8359C4.63424 29.1951 5.17409 29.4637 6.33882 29.6176C7.55151 29.7761 9.16945 29.7791 11.5499 29.7791H21.4494C23.8299 29.7791 25.448 29.7761 26.6605 29.6176C27.8252 29.4637 28.3651 29.195 28.7317 28.8359C29.0998 28.4783 29.3751 27.9516 29.5329 26.8152C29.6953 25.6321 29.6984 24.0536 29.6984 21.7311V15.2917H3.30092Z" fill="#1E5B98" style="fill:#1E5B98;fill:color(display-p3 0.1162 0.3556 0.5951);fill-opacity:1;"/>
</svg>
